<?xml version="1.0" encoding="UTF-8" standalone="no"?>
<!DOCTYPE svg PUBLIC "-//W3C//DTD SVG 1.1//EN" "http://www.w3.org/Graphics/SVG/1.1/DTD/svg11.dtd">
<svg width="100%" height="100%" viewBox="0 0 2481 591" version="1.1" xmlns="http://www.w3.org/2000/svg" xmlns:xlink="http://www.w3.org/1999/xlink" xml:space="preserve" xmlns:serif="http://www.serif.com/" style="fill-rule:evenodd;clip-rule:evenodd;stroke-linejoin:round;stroke-miterlimit:2;">
    <g transform="matrix(2.20438,0,0,2.20438,-86.3373,32.4482)">
        <path d="M246.179,78.821C246.179,73.253 241.658,68.732 236.09,68.732L155.371,68.732C149.802,68.732 145.281,73.253 145.281,78.821L145.281,159.933C145.281,165.502 149.802,170.023 155.371,170.023L236.09,170.023C241.658,170.023 246.179,165.502 246.179,159.933L246.179,78.821ZM235.738,102.592C235.738,90.542 225.955,80.759 213.905,80.759L177.562,80.759C165.513,80.759 155.73,90.542 155.73,102.592L155.73,138.934C155.73,150.984 165.513,160.767 177.562,160.767L213.905,160.767C225.955,160.767 235.738,150.984 235.738,138.934L235.738,102.592ZM228.416,102.592L228.416,138.934C228.416,146.943 221.914,153.445 213.905,153.445C213.905,153.445 177.562,153.445 177.562,153.445C169.554,153.445 163.052,146.943 163.052,138.934C163.052,138.934 163.052,102.592 163.052,102.592C163.052,94.583 169.554,88.081 177.562,88.081C177.562,88.081 213.905,88.081 213.905,88.081C221.914,88.081 228.416,94.583 228.416,102.592ZM195.83,100.444C184.572,100.444 175.432,109.584 175.432,120.842C175.432,132.1 184.572,141.241 195.83,141.241C207.088,141.241 216.228,132.1 216.228,120.842C216.228,109.584 207.088,100.444 195.83,100.444ZM195.83,107.766C203.047,107.766 208.907,113.625 208.907,120.842C208.907,128.06 203.047,133.919 195.83,133.919C188.613,133.919 182.753,128.06 182.753,120.842C182.753,113.625 188.613,107.766 195.83,107.766ZM217.307,94.454C220.24,94.454 222.622,96.836 222.622,99.77C222.622,102.704 220.24,105.086 217.307,105.086C214.373,105.086 211.991,102.704 211.991,99.77C211.991,96.836 214.373,94.454 217.307,94.454Z"/>
    </g>
    <g transform="matrix(5.17508,0,0,5.17508,-3494.59,-8538.56)">
        <path d="M808.08,1728.73L794.628,1728.73C792.256,1728.73 790.33,1726.8 790.33,1724.43L790.33,1689.88C790.33,1687.51 792.256,1685.58 794.628,1685.58L829.011,1685.58C831.383,1685.58 833.309,1687.51 833.309,1689.88L833.309,1724.43C833.309,1726.8 831.383,1728.73 829.011,1728.73L814.748,1728.73L814.741,1714.08L820.057,1714.04L820.068,1707.7L814.721,1707.72C814.721,1707.72 814.729,1704.35 814.736,1701.92C814.739,1700.59 815.822,1699.5 817.158,1699.5C818.93,1699.49 821.028,1699.49 821.028,1699.49L820.975,1693.77C820.975,1693.77 817.269,1693.76 813.829,1693.75C810.646,1693.75 808.056,1696.31 808.033,1699.5L808.095,1707.74L802.368,1707.75L802.317,1713.95L808.019,1714.01L808.08,1728.73Z"/>
    </g>
    <g transform="matrix(2.20438,0,0,2.20438,-86.3373,32.4482)">
        <path d="M571.829,79.29C571.829,73.721 567.308,69.2 561.739,69.2L481.021,69.2C475.452,69.2 470.931,73.721 470.931,79.29L470.931,160.402C470.931,165.97 475.452,170.491 481.021,170.491L561.739,170.491C567.308,170.491 571.829,165.97 571.829,160.402L571.829,79.29ZM488.525,141.173C512.261,155.68 549.619,141.812 548.703,106.15C551.497,104.259 553.675,101.92 555.42,99.266C553.035,100.241 550.501,100.918 547.782,101.226C550.613,99.436 552.529,96.909 553.645,93.738C551.144,95.309 548.276,96.451 544.918,97.021C535.739,88.134 519.753,94.442 521.426,109.601C509.361,109.047 500.205,103.675 492.906,95.229C489.867,102.299 490.287,108.636 497.076,113.621C495.099,113.523 493.098,113.087 491.046,111.946C491.231,119.092 495.222,123.349 501.884,125.581C499.863,126.324 497.841,126.224 495.82,125.849C498.481,131.903 502.996,134.777 508.784,135.47C502.823,140.121 495.901,141.437 488.525,141.173Z"/>
    </g>
    <g transform="matrix(2.20438,0,0,2.20438,-86.3373,32.4482)">
        <path d="M735.827,79.524C735.827,73.956 731.306,69.434 725.738,69.434L645.019,69.434C639.45,69.434 634.929,73.956 634.929,79.524L634.929,160.636C634.929,166.205 639.45,170.726 645.019,170.726L725.738,170.726C731.306,170.726 735.827,166.205 735.827,160.636L735.827,79.524ZM724.075,103.71C724.075,97.604 719.117,92.646 713.011,92.646L656.372,92.646C650.266,92.646 645.308,97.604 645.308,103.71L645.308,136.901C645.308,143.007 650.266,147.964 656.372,147.964L713.011,147.964C719.117,147.964 724.075,143.007 724.075,136.901L724.075,103.71ZM676.923,131.072L677.254,108.122L695.296,119.928L676.923,131.072Z"/>
    </g>
    <g transform="matrix(2.20438,0,0,2.20438,-86.3373,32.4482)">
        <path d="M897.478,79.759C897.478,74.19 892.957,69.669 887.389,69.669L806.67,69.669C801.101,69.669 796.58,74.19 796.58,79.759L796.58,160.87C796.58,166.439 801.101,170.96 806.67,170.96L887.389,170.96C892.957,170.96 897.478,166.439 897.478,160.87L897.478,79.759ZM848.442,83.902L860.222,83.849C859.5,92.024 865.302,98.379 876.354,103.271L876.725,114.149C870.672,112.909 865.068,111.013 860.488,107.622L860.758,132.466C860.665,145.194 850.731,155.482 838.489,155.482C826.198,155.482 816.22,145.088 816.22,132.285C816.22,119.474 826.19,109.088 838.489,109.088L838.489,121.843C832.953,121.843 828.465,126.518 828.465,132.285C828.465,138.048 832.957,142.727 838.489,142.727C844.026,142.727 848.514,138.052 848.514,132.285L848.442,83.902Z"/>
    </g>
    <g transform="matrix(2.20438,0,0,2.20438,-86.3373,32.4482)">
        <path d="M1061.48,79.993C1061.48,74.424 1056.96,69.903 1051.39,69.903L970.669,69.903C965.1,69.903 960.579,74.424 960.579,79.993L960.579,161.104C960.579,166.673 965.1,171.194 970.669,171.194L1051.39,171.194C1056.96,171.194 1061.48,166.673 1061.48,161.104L1061.48,79.993ZM989.581,107.084C989.581,106.15 988.823,105.391 987.889,105.391L974.347,105.391C973.412,105.391 972.654,106.15 972.654,107.084L972.654,157.947C972.654,158.881 973.412,159.639 974.347,159.639L987.889,159.639C988.823,159.639 989.581,158.881 989.581,157.947L989.581,107.084ZM1014.05,112.094C1016.85,108.079 1020.59,105.972 1026.51,104.962C1026.54,104.957 1026.57,104.954 1026.6,104.951C1031.02,104.587 1035.22,104.905 1038.65,106.136C1039.82,106.562 1040.9,107.211 1041.83,108.048C1045.04,110.943 1046.98,114.14 1048.18,117.514C1048.81,119.26 1049.17,121.09 1049.26,122.944C1049.31,123.773 1049.37,124.82 1049.42,125.872C1049.47,126.028 1049.5,130.637 1049.5,130.637L1049.5,157.077C1049.5,158.011 1048.74,158.77 1047.8,158.77L1034.26,158.77C1033.33,158.77 1032.57,158.011 1032.57,157.077L1032.57,131.171C1032.57,131.171 1032.5,129.107 1032.46,128.093C1032.44,127.54 1032.36,126.991 1032.22,126.456C1031.1,122.469 1028.35,119.203 1023.39,119.201C1019.45,119.465 1016.3,121.746 1014.45,127.296C1014.2,128.04 1014.07,128.819 1014.07,129.604C1014.05,134.718 1014.05,157.857 1014.05,157.857C1014.05,158.791 1013.29,159.549 1012.36,159.549L998.817,159.549C997.882,159.549 997.124,158.791 997.124,157.857L997.124,106.994C997.124,106.06 997.882,105.302 998.817,105.302L1012.36,105.302C1013.29,105.302 1014.05,106.06 1014.05,106.994L1014.05,112.094ZM981.18,79.355C987.147,79.355 991.991,84.2 991.991,90.166C991.991,96.133 987.147,100.977 981.18,100.977C975.213,100.977 970.369,96.133 970.369,90.166C970.369,84.2 975.213,79.355 981.18,79.355Z"/>
    </g>
</svg>
