<?xml version="1.0" encoding="utf-8"?>
<!-- Generator: Adobe Illustrator 26.5.2, SVG Export Plug-In . SVG Version: 6.00 Build 0)  -->
<svg version="1.1" id="Layer_1" xmlns="http://www.w3.org/2000/svg" xmlns:xlink="http://www.w3.org/1999/xlink" x="0px" y="0px"
	 viewBox="0 0 2002 2002" style="enable-background:new 0 0 2002 2002;" xml:space="preserve">
<style type="text/css">
	.st0{fill:#FFFFFF;}
</style>
<g id="facebook_00000119826851401523059960000008168323273568978063_">
	<path id="frame" d="M673.65,413.82h654.7c143.5,0,259.83,116.33,259.83,259.83v654.7c0,143.5-116.33,259.83-259.83,259.83h-654.7
		c-143.5,0-259.83-116.33-259.83-259.83v-654.7C413.82,530.15,530.15,413.82,673.65,413.82z"/>
	<path id="logo_00000091003663524776004770000014887015221396776359_" class="st0" d="M1089.31,887.36V997.1h162.22l-25.94,169.04
		h-136.28v422.04H906.55v-422.04H757.97V997.1h148.58V868.24c0.37-60.42,13.57-123.16,64.17-172.41
		c35.23-34.18,85.76-54.2,156.75-55.17c45.73,0.52,89.21,4.57,130.89,11.39v143.93h-73.69c-25.94-0.15-47.83,5.7-64.84,18.82
		C1098.83,831.58,1089.46,856.32,1089.31,887.36z"/>
</g>
</svg>
